<svg t="1658480202320" class="icon" viewBox="0 0 1024 1024" version="1.1" xmlns="http://www.w3.org/2000/svg" p-id="887" width="64" height="64"><path d="M907.995429 643.584l109.714285 190.025143-109.714285 190.025143h-219.428572l-109.714286-190.025143 109.714286-190.025143h219.428572zM502.491429 7.094857a281.6 281.6 0 1 1 0 563.2l13.604571-0.219428a43.885714 43.885714 0 0 1-13.165714 1.974857 394.971429 394.971429 0 0 0-394.971429 394.971428 43.885714 43.885714 0 1 1-87.771428 0A482.962286 482.962286 0 0 1 334.262857 514.56 281.6 281.6 0 0 1 502.491429 7.168zM865.718857 716.8H730.770286l-67.510857 116.882286 67.437714 116.882285h134.948571l67.584-116.955428-67.510857-116.809143z m-62.025143 79.286857a36.571429 36.571429 0 1 1 0 73.142857 36.571429 36.571429 0 0 1 0-73.142857zM502.491429 94.866286a193.828571 193.828571 0 1 0 0 387.657143 193.828571 193.828571 0 0 0 0-387.657143z" p-id="888"></path></svg>