<svg t="1658479499455" class="icon" viewBox="0 0 1024 1024" version="1.1" xmlns="http://www.w3.org/2000/svg" p-id="3706" width="64" height="64"><path d="M579.584 837.632c-16.384 0-28.672-12.288-28.672-28.672 0-16.384 12.288-28.672 28.672-28.672h288.768c16.384 0 28.672 12.288 28.672 28.672 0 16.384-12.288 28.672-28.672 28.672H579.584zM378.88 860.16H202.752C169.984 860.16 143.36 833.536 143.36 800.768v-178.176c0-32.768 26.624-59.392 59.392-59.392h178.176c32.768 0 59.392 26.624 59.392 59.392v178.176c-2.048 32.768-28.672 59.392-61.44 59.392zM202.752 604.16c-10.24 0-20.48 8.192-20.48 20.48v178.176c0 10.24 8.192 20.48 20.48 20.48h178.176c10.24 0 20.48-8.192 20.48-20.48v-178.176c0-10.24-8.192-20.48-20.48-20.48H202.752z m376.832 40.96c-16.384 0-28.672-12.288-28.672-28.672 0-16.384 12.288-28.672 28.672-28.672h288.768c16.384 0 28.672 12.288 28.672 28.672 0 16.384-12.288 28.672-28.672 28.672H579.584z m0-192.512c-16.384 0-28.672-12.288-28.672-28.672 0-16.384 12.288-28.672 28.672-28.672h288.768c16.384 0 28.672 12.288 28.672 28.672 0 16.384-12.288 28.672-28.672 28.672H579.584z m-200.704 22.528H202.752c-32.768 0-59.392-26.624-59.392-59.392v-176.128c0-32.768 26.624-59.392 59.392-59.392h176.128c32.768 0 59.392 26.624 59.392 59.392v176.128c0 32.768-26.624 59.392-59.392 59.392zM202.752 219.136c-10.24 0-20.48 8.192-20.48 20.48v176.128c0 10.24 8.192 20.48 20.48 20.48h176.128c10.24 0 20.48-8.192 20.48-20.48v-176.128c0-10.24-8.192-20.48-20.48-20.48H202.752z m376.832 40.96c-16.384 0-28.672-12.288-28.672-28.672 0-16.384 12.288-28.672 28.672-28.672h288.768c16.384 0 28.672 12.288 28.672 28.672 0 16.384-12.288 28.672-28.672 28.672H579.584z m0 0" fill="#CCCCCC" p-id="3707"></path></svg>