<svg t="1658479722222" class="icon" viewBox="0 0 1024 1024" version="1.1" xmlns="http://www.w3.org/2000/svg" p-id="4830" width="64" height="64"><path d="M729.421868 592.96194c-48.383964 0-90.440825 26.126031-113.861234 64.768119L394.33309 537.957185c17.308201-22.50762 28.02017-50.344618 28.02017-80.886215 0-25.245987-7.436366-48.599881-19.651572-68.744687l209.729675-123.097596c22.592554 41.771359 66.267263 70.521147 116.990504 70.521147 73.617671 0 133.512806-59.878762 133.512806-133.512806S803.039539 68.724221 729.421868 68.724221 595.910085 128.60196 595.910085 202.236004c0 10.903328 1.682315 21.366633 4.15974 31.519878L382.027833 361.727485c-24.084535-23.533996-56.92857-38.169321-93.187379-38.169321-73.617671 0-133.512806 59.878762-133.512806 133.512806s59.895135 133.512806 133.512806 133.512806c30.53034 0 58.359152-10.707876 80.878029-28.016077l232.395908 125.803217c-3.651157 12.157901-6.205329 24.77322-6.205329 38.104853 0 73.634044 59.895135 133.512806 133.512806 133.512806s133.512806-59.878762 133.512806-133.512806S803.039539 592.96194 729.421868 592.96194zM729.421868 135.479601c36.81651 0 66.756403 29.955242 66.756403 66.756403s-29.938869 66.756403-66.756403 66.756403c-36.81651 0-66.756403-29.955242-66.756403-66.756403S692.605358 135.479601 729.421868 135.479601zM288.840454 523.82635c-36.81651 0-66.756403-29.955242-66.756403-66.756403s29.938869-66.756403 66.756403-66.756403 66.756403 29.955242 66.756403 66.756403S325.657988 523.82635 288.840454 523.82635zM729.421868 793.231149c-36.81651 0-66.756403-29.955242-66.756403-66.756403 0-36.801161 29.938869-66.756403 66.756403-66.756403 36.81651 0 66.756403 29.955242 66.756403 66.756403C796.178271 763.274884 766.239402 793.231149 729.421868 793.231149z" p-id="4831"></path></svg>